<mxfile host="app.diagrams.net" modified="2020-11-08T12:57:23.036Z" agent="5.0 (Macintosh; Intel Mac OS X 10_15_6) AppleWebKit/537.36 (KHTML, like Gecko) Chrome/80.0.3987.149 Safari/537.36" etag="7nJwYHDqOa_xShZcoQg4" version="13.8.7" type="github">
  <diagram id="J2Wv0a1sOJpeP9RNFl0m" name="Page-1">
    <mxGraphModel dx="1426" dy="771" grid="1" gridSize="10" guides="1" tooltips="1" connect="1" arrows="1" fold="1" page="1" pageScale="1" pageWidth="827" pageHeight="1169" math="0" shadow="0">
      <root>
        <mxCell id="0" />
        <mxCell id="1" parent="0" />
        <mxCell id="OACHYvRTCOuawD0EWgq4-9" value="" style="edgeStyle=orthogonalEdgeStyle;rounded=0;orthogonalLoop=1;jettySize=auto;html=1;sketch=1;" edge="1" parent="1" source="OACHYvRTCOuawD0EWgq4-2" target="OACHYvRTCOuawD0EWgq4-3">
          <mxGeometry relative="1" as="geometry" />
        </mxCell>
        <mxCell id="OACHYvRTCOuawD0EWgq4-2" value="&lt;font style=&quot;font-size: 14px&quot;&gt;Spring容器启动完毕&lt;/font&gt;" style="rounded=1;whiteSpace=wrap;html=1;shadow=1;fillColor=#d5e8d4;strokeColor=#82b366;sketch=1;" vertex="1" parent="1">
          <mxGeometry x="294" y="100" width="136" height="60" as="geometry" />
        </mxCell>
        <mxCell id="OACHYvRTCOuawD0EWgq4-10" value="" style="edgeStyle=orthogonalEdgeStyle;rounded=0;sketch=1;orthogonalLoop=1;jettySize=auto;html=1;" edge="1" parent="1" source="OACHYvRTCOuawD0EWgq4-3" target="OACHYvRTCOuawD0EWgq4-5">
          <mxGeometry relative="1" as="geometry" />
        </mxCell>
        <mxCell id="OACHYvRTCOuawD0EWgq4-3" value="&lt;font style=&quot;font-size: 14px&quot;&gt;ServiceBean#onApplicationEvent&lt;/font&gt;" style="rounded=1;whiteSpace=wrap;html=1;shadow=1;fillColor=#dae8fc;strokeColor=#6c8ebf;sketch=1;" vertex="1" parent="1">
          <mxGeometry x="248" y="200" width="228" height="70" as="geometry" />
        </mxCell>
        <mxCell id="OACHYvRTCOuawD0EWgq4-4" style="edgeStyle=orthogonalEdgeStyle;rounded=0;orthogonalLoop=1;jettySize=auto;html=1;exitX=0.5;exitY=1;exitDx=0;exitDy=0;" edge="1" parent="1" source="OACHYvRTCOuawD0EWgq4-2" target="OACHYvRTCOuawD0EWgq4-2">
          <mxGeometry relative="1" as="geometry" />
        </mxCell>
        <mxCell id="OACHYvRTCOuawD0EWgq4-12" value="" style="edgeStyle=orthogonalEdgeStyle;rounded=0;sketch=1;orthogonalLoop=1;jettySize=auto;html=1;" edge="1" parent="1" source="OACHYvRTCOuawD0EWgq4-5" target="OACHYvRTCOuawD0EWgq4-6">
          <mxGeometry relative="1" as="geometry" />
        </mxCell>
        <mxCell id="OACHYvRTCOuawD0EWgq4-5" value="&lt;font style=&quot;font-size: 14px&quot;&gt;ServiceConfig#export&lt;/font&gt;" style="rounded=1;whiteSpace=wrap;html=1;shadow=1;fillColor=#dae8fc;strokeColor=#6c8ebf;sketch=1;" vertex="1" parent="1">
          <mxGeometry x="253" y="300" width="218" height="70" as="geometry" />
        </mxCell>
        <mxCell id="OACHYvRTCOuawD0EWgq4-13" value="" style="edgeStyle=orthogonalEdgeStyle;rounded=0;sketch=1;orthogonalLoop=1;jettySize=auto;html=1;" edge="1" parent="1" source="OACHYvRTCOuawD0EWgq4-6" target="OACHYvRTCOuawD0EWgq4-7">
          <mxGeometry relative="1" as="geometry" />
        </mxCell>
        <mxCell id="OACHYvRTCOuawD0EWgq4-6" value="&lt;font style=&quot;font-size: 14px&quot;&gt;ServiceConfig#doExport&lt;/font&gt;" style="rounded=1;whiteSpace=wrap;html=1;shadow=1;fillColor=#dae8fc;strokeColor=#6c8ebf;sketch=1;" vertex="1" parent="1">
          <mxGeometry x="253" y="400" width="218" height="70" as="geometry" />
        </mxCell>
        <mxCell id="OACHYvRTCOuawD0EWgq4-14" value="" style="edgeStyle=orthogonalEdgeStyle;rounded=0;sketch=1;orthogonalLoop=1;jettySize=auto;html=1;" edge="1" parent="1" source="OACHYvRTCOuawD0EWgq4-7" target="OACHYvRTCOuawD0EWgq4-8">
          <mxGeometry relative="1" as="geometry" />
        </mxCell>
        <mxCell id="OACHYvRTCOuawD0EWgq4-7" value="&lt;font style=&quot;font-size: 14px&quot;&gt;ServiceConfig#doExportUrls&lt;/font&gt;" style="rounded=1;whiteSpace=wrap;html=1;shadow=1;fillColor=#dae8fc;strokeColor=#6c8ebf;sketch=1;" vertex="1" parent="1">
          <mxGeometry x="253" y="500" width="218" height="70" as="geometry" />
        </mxCell>
        <mxCell id="OACHYvRTCOuawD0EWgq4-24" value="" style="edgeStyle=orthogonalEdgeStyle;rounded=0;sketch=1;orthogonalLoop=1;jettySize=auto;html=1;" edge="1" parent="1" source="OACHYvRTCOuawD0EWgq4-8" target="OACHYvRTCOuawD0EWgq4-15">
          <mxGeometry relative="1" as="geometry" />
        </mxCell>
        <mxCell id="OACHYvRTCOuawD0EWgq4-8" value="&lt;font style=&quot;font-size: 14px&quot;&gt;ServiceConfig#doExportUrlsFor1Protocol&lt;/font&gt;" style="rounded=1;whiteSpace=wrap;html=1;shadow=1;fillColor=#dae8fc;strokeColor=#6c8ebf;sketch=1;" vertex="1" parent="1">
          <mxGeometry x="217" y="600" width="290" height="70" as="geometry" />
        </mxCell>
        <mxCell id="OACHYvRTCOuawD0EWgq4-15" value="&lt;span style=&quot;font-size: 14px&quot;&gt;1. 构造url，可以实现属性覆盖&lt;/span&gt;&lt;br&gt;&lt;span style=&quot;font-size: 14px&quot;&gt;2. 给服务生成代理对象Invoker&lt;/span&gt;&lt;br&gt;&lt;span style=&quot;font-size: 14px&quot;&gt;3. 将Invoker包装成Exporter&lt;/span&gt;" style="rounded=1;whiteSpace=wrap;html=1;shadow=1;fillColor=#dae8fc;strokeColor=#6c8ebf;sketch=1;" vertex="1" parent="1">
          <mxGeometry x="217" y="710" width="290" height="120" as="geometry" />
        </mxCell>
        <mxCell id="OACHYvRTCOuawD0EWgq4-16" value="&lt;font style=&quot;font-size: 14px&quot;&gt;开始导出，可以设置延迟导出&lt;/font&gt;" style="text;html=1;strokeColor=none;fillColor=none;align=center;verticalAlign=middle;whiteSpace=wrap;rounded=0;shadow=1;sketch=1;" vertex="1" parent="1">
          <mxGeometry x="27" y="325" width="190" height="35" as="geometry" />
        </mxCell>
        <mxCell id="OACHYvRTCOuawD0EWgq4-20" value="&lt;span style=&quot;font-size: 14px&quot;&gt;获取支持的协议和注册中心地址&lt;/span&gt;" style="text;html=1;strokeColor=none;fillColor=none;align=center;verticalAlign=middle;whiteSpace=wrap;rounded=0;shadow=1;sketch=1;" vertex="1" parent="1">
          <mxGeometry x="27" y="517.5" width="203" height="32.5" as="geometry" />
        </mxCell>
        <mxCell id="OACHYvRTCOuawD0EWgq4-21" value="&lt;span style=&quot;font-size: 14px&quot;&gt;将一种协议注册到所有的注册中心&lt;/span&gt;" style="text;html=1;strokeColor=none;fillColor=none;align=center;verticalAlign=middle;whiteSpace=wrap;rounded=0;shadow=1;sketch=1;" vertex="1" parent="1">
          <mxGeometry x="37" y="620" width="163" height="30" as="geometry" />
        </mxCell>
        <mxCell id="OACHYvRTCOuawD0EWgq4-23" value="&lt;span style=&quot;font-size: 14px&quot;&gt;本地暴露&lt;/span&gt;" style="text;html=1;strokeColor=none;fillColor=none;align=center;verticalAlign=middle;whiteSpace=wrap;rounded=0;shadow=1;sketch=1;" vertex="1" parent="1">
          <mxGeometry x="37" y="760" width="163" height="30" as="geometry" />
        </mxCell>
      </root>
    </mxGraphModel>
  </diagram>
</mxfile>
